<svg version="1.1" id="레이어_1" xmlns="http://www.w3.org/2000/svg" x="0" y="0" viewBox="0 0 400 600" style="enable-background:new 0 0 400 600" xml:space="preserve"><style>.st0{fill:none;stroke:#a1a1a9;stroke-width:4;stroke-linecap:round;stroke-linejoin:round;stroke-miterlimit:10}</style><path class="st0" d="m55.8 537.7-21.5 21.4 6.9 11.7h34.4l31.3-15.3v-11.3l-9.8-6.5zM347.7 298.2V185.3L263 29.2l-22.9 22.7h-95.2l-53.6 51.6-.6 22.5 25.6 24.8v52.8H78.5L61.3 227l45.6 26.7v116.4l-33.8 90.4 26.8 25.6 104.6-60.9 67.4-14.7H321l45.3-54.4v-41.2z"/><path class="st0" d="m34.3 559.1 21.5-21.4h41.3l9.8 6.5v11.3l-31.3 15.3H41.2zM203.6 179.3h57.6l16.6 6h69.9L263 29.2l-22.9 22.7h-95.2l58.7 49.7z"/><path class="st0" d="M203.6 179.3v-77.7l-58.7-49.7-53.6 51.6-.6 22.5 25.6 24.8v52.8h48.9zM129 298h31.3l12.7 12.6h11.8v-43.5l-19.6-18v-45.5H78.5L61.3 227l45.6 26.7v56.5h9.9z"/><path class="st0" d="M217.9 281.1v-45.6l21.2-21.1h20.5l18.2-29.1-16.6-6h-57.6l-38.4 24.3v45.5l19.6 18v43.5l9.8-7.6h23.6l13.3-21.9z"/><path class="st0" d="M259.6 214.4h-20.5l-21.2 21.1v45.6h13.6L218.2 303v18.1l32.3 32.3h57l22-14.6h14.9l21.9 17.3v-41.2l-18.6-16.7V185.3h-69.9z"/><path class="st0" d="m321 410.5 45.3-54.4-21.9-17.3h-14.9l-22 14.6h-57l-32.3-32.3-18.2 18.1v34.1l-9.8 14.2h0v17.6l14.3 7.7v12.4l67.4-14.7z"/><path class="st0" d="M200 373.3v-34.1l18.2-18.1V303h-23.6l-9.8 7.6H173L160.3 298H129l-12.2 12.2h-9.9v59.9l-33.8 90.4 26.8 25.6 104.6-60.9v-12.4l-14.3-7.7v-17.6zM126.2 118.5l11.8-12.9h19.3l10.9 11-14.6 21.2h-18.4l-9-10.1z"/></svg>